<svg width="32" height="32" viewBox="0 0 32 32" fill="none" xmlns="http://www.w3.org/2000/svg">
<g clip-path="url(#clip0_25_70)">
<mask id="mask0_25_70" style="mask-type:luminance" maskUnits="userSpaceOnUse" x="0" y="0" width="32" height="32">
<path d="M32 0H0V32H32V0Z" fill="white"/>
</mask>
<g mask="url(#mask0_25_70)">
<path opacity="0.4" d="M28.1402 11.2343C26.9454 9.35378 25.0811 8.09934 22.8906 7.70216C20.3923 7.24916 17.9298 7.97591 16 9.70603C14.0702 7.97597 11.6079 7.24885 9.10936 7.70216C6.91886 8.09934 5.05455 9.35378 3.85974 11.2343C2.71474 13.0364 1.63662 16.2652 3.00262 21.4133C3.84412 24.5851 5.31205 27.3817 7.13599 29.2882C8.83298 31.0619 10.7849 32.0001 12.7298 32C13.0895 32 13.4491 31.968 13.8066 31.9031C13.9658 31.8743 14.1254 31.8387 14.281 31.7976C15.4055 31.4999 16.5944 31.4999 17.7189 31.7976C17.8745 31.8387 18.0341 31.8743 18.1932 31.9031C20.484 32.3185 22.8532 31.3899 24.864 29.2882C26.6879 27.3818 28.1559 24.5851 28.9974 21.4134C30.3634 16.2652 29.2852 13.0364 28.1402 11.2343Z" fill="#8DBB01"/>
<path d="M23.4459 0.737186C23.3432 0.294062 22.9431 -0.0150003 22.4865 0.000562202C22.3184 0.00612469 18.3457 0.167749 16.3436 2.77524C15.4366 3.95649 15.1265 5.45486 15.062 6.75617C15.3818 6.92124 15.6947 7.10442 15.9999 7.30567C17.6341 6.22849 19.4878 5.66593 21.4381 5.66593C22.0227 5.66593 22.6147 5.71893 23.1982 5.8228C24.0571 3.45831 23.4767 0.870436 23.4459 0.737186Z" fill="#8DBB01"/>
</g>
</g>
<defs>
<clipPath id="clip0_25_70">
<rect width="32" height="32" fill="white"/>
</clipPath>
</defs>
</svg>
