<svg width="935" height="1327" viewBox="0 0 935 1327" fill="none" xmlns="http://www.w3.org/2000/svg">
<path d="M508.785 499.561C693.127 572.446 855.126 488.752 867.209 364.534C882.313 209.261 679.611 75.4912 573.699 195.075C437.19 349.207 571.72 414.764 591.816 622.041C611.912 829.317 393.226 1051.54 170.63 893.211C-51.9662 734.878 155.204 359.76 508.785 499.561Z" stroke="#223122" stroke-opacity="0.04" stroke-width="40"/>
<path d="M462.512 620.104C200.877 576.605 72.8055 368.953 144.581 218.178C234.301 29.7103 558.963 16.0501 597.977 226.193C648.263 497.045 448.8 479.481 282.865 703.317C116.931 927.153 214.507 1332.74 578.914 1304.63C943.321 1276.51 964.349 703.54 462.512 620.104Z" stroke="#223122" stroke-opacity="0.04" stroke-width="40"/>
</svg>
