<svg width="1440" height="460" viewBox="0 0 1440 460" fill="none" xmlns="http://www.w3.org/2000/svg">
<g clip-path="url(#clip0_350_16249)">
<path d="M1440.78 449.054C1372.62 635.193 1460.41 795.006 1584.9 803.921C1740.51 815.064 1869.07 609.019 1746.82 506.189C1589.27 373.651 1527.16 509.807 1320.46 535.178C1113.76 560.548 886.036 347.596 1038.65 121.038C1191.26 -105.52 1571.53 92.0251 1440.78 449.054Z" stroke="white" stroke-opacity="0.01" stroke-width="40"/>
<path d="M1319.1 405.866C1355.92 143.208 1560.24 9.88702 1712.8 77.798C1903.49 162.687 1925.42 486.895 1716.34 531.251C1446.85 588.421 1459.33 388.575 1231.34 228.397C1003.35 68.2197 600.375 176.098 637.764 539.671C675.153 903.243 1248.48 909.666 1319.1 405.866Z" stroke="white" stroke-opacity="0.01" stroke-width="40"/>
</g>
<defs>
<clipPath id="clip0_350_16249">
<rect width="1441" height="946" fill="white" transform="translate(0 -486)"/>
</clipPath>
</defs>
</svg>
