<svg width="336" height="311" viewBox="0 0 336 311" fill="none" xmlns="http://www.w3.org/2000/svg">
<path fill-rule="evenodd" clip-rule="evenodd" d="M279.547 246.495C184.478 383.254 17.4247 486.27 0 351.228C30.4932 447.064 182.536 355.262 263.291 230.478C324.505 135.889 331.883 45.3368 284.834 21.4769C314.968 55.4929 299.851 145.305 248.302 220.549C171.876 332.105 30.4933 429.649 13.0686 303.447C39.2057 394.8 170.315 309.271 235.234 207.484C291.065 119.944 302.65 30.0449 246.623 23.4779C292.009 34.4527 266.574 125.353 217.809 198.771C157.841 289.055 52.2741 359.943 30.4932 264.11C65.3426 333.806 158.159 263.718 209.097 181.34C270.083 82.7114 285.337 -18.3822 148.11 59.3768C148.561 59.0845 149.01 58.7941 149.458 58.5056C149.035 58.7737 148.611 59.0435 148.186 59.315L148.11 59.3659L148.124 59.3544L148.11 59.3631L148.272 59.2301C335.457 -97.3448 389.37 88.5123 279.547 246.495ZM39.2056 124.712C69.6988 33.233 95.8359 15.803 148.11 59.3698C146.958 58.7937 145.71 58.1224 144.37 57.4012C125.443 47.2155 88.0231 27.0776 39.2056 124.712Z" fill="#223122" fill-opacity="0.04"/>
</svg>
