<svg width="666" height="822" viewBox="0 0 666 822" fill="none" xmlns="http://www.w3.org/2000/svg">
<g opacity="0.3">
<path fill-rule="evenodd" clip-rule="evenodd" d="M554.102 488.588C365.661 759.664 34.5383 963.856 0 696.185C60.442 886.145 361.813 704.179 521.88 456.841C643.216 269.351 657.84 89.8643 564.582 42.5703C624.312 109.995 594.347 288.016 492.17 437.159C340.682 658.279 60.4421 851.625 25.9038 601.476C77.7112 782.549 337.589 613.02 466.267 411.262C576.932 237.747 599.896 59.553 488.841 46.5364C578.803 68.2898 528.388 248.467 431.728 393.993C312.864 572.948 103.615 713.458 60.4419 523.504C129.518 661.651 313.493 522.726 414.459 359.441C535.343 163.946 565.578 -36.4363 293.575 117.693C294.469 117.113 295.36 116.537 296.247 115.965C295.411 116.496 294.572 117.029 293.732 117.566L293.575 117.672L293.604 117.648L293.575 117.666L293.912 117.39C664.926 -192.941 771.785 175.448 554.102 488.588ZM77.7109 247.199C138.153 65.8733 189.96 31.3244 293.575 117.68C291.291 116.538 288.819 115.208 286.162 113.778C248.646 93.5886 174.474 53.6723 77.7109 247.199Z" fill="#F9EDB4"/>
</g>
</svg>
