<svg width="1216" height="422" viewBox="0 0 1216 422" fill="none" xmlns="http://www.w3.org/2000/svg">
<g clip-path="url(#clip0_251_7754)">
<path d="M301.381 283.282C216.012 317.036 140.991 278.277 135.395 220.751C128.4 148.845 222.272 86.8964 271.319 142.276C334.537 213.654 272.236 244.013 262.929 340.003C253.623 435.992 354.896 538.905 457.98 465.581C561.064 392.258 465.124 218.541 301.381 283.282Z" stroke="#223122" stroke-opacity="0.04" stroke-width="40"/>
<path d="M1036.49 267.763C1201.67 333.071 1346.82 258.078 1357.65 146.774C1371.18 7.64466 1189.55 -112.217 1094.65 -5.06608C972.338 133.041 1092.88 191.783 1110.89 377.509C1128.89 563.235 932.945 762.358 733.491 620.487C534.038 478.615 719.669 142.497 1036.49 267.763Z" stroke="#223122" stroke-opacity="0.04" stroke-width="40"/>
<path d="M62.4655 352.679C183.628 332.534 242.938 236.371 209.699 166.547C168.15 79.2681 17.7994 72.9421 -0.268116 170.259C-23.5552 295.69 68.8158 287.556 145.66 391.214C222.504 494.872 177.316 682.7 8.56004 669.681C-160.196 656.662 -169.934 391.318 62.4655 352.679Z" stroke="#223122" stroke-opacity="0.04" stroke-width="40"/>
</g>
<defs>
<clipPath id="clip0_251_7754">
<rect width="1216" height="422" fill="white"/>
</clipPath>
</defs>
</svg>
