<svg width="1440" height="200" viewBox="0 0 1440 200" fill="none" xmlns="http://www.w3.org/2000/svg">
<g clip-path="url(#clip0_0_1)">
<path d="M808.784 461.054C740.619 647.193 828.414 807.006 952.899 815.921C1108.51 827.064 1237.07 621.019 1114.82 518.189C957.265 385.651 895.156 521.807 688.459 547.178C481.763 572.548 254.036 359.596 406.646 133.038C559.256 -93.5202 939.53 104.025 808.784 461.054Z" stroke="white" stroke-opacity="0.01" stroke-width="40"/>
<path d="M687.101 417.87C723.92 155.212 928.242 21.8909 1080.8 89.8019C1271.49 174.691 1293.42 498.899 1084.34 543.255C814.853 600.425 827.329 400.579 599.338 240.401C371.347 80.2236 -31.6248 188.102 5.76435 551.675C43.1534 915.247 616.478 921.669 687.101 417.87Z" stroke="white" stroke-opacity="0.01" stroke-width="40"/>
</g>
<defs>
<clipPath id="clip0_0_1">
<rect width="1440" height="844" fill="white" transform="translate(0 -644)"/>
</clipPath>
</defs>
</svg>
