<svg width="825" height="461" viewBox="0 0 825 461" fill="none" xmlns="http://www.w3.org/2000/svg">
<g clip-path="url(#clip0_0_1)">
<path d="M824.784 450.055C756.619 636.194 844.414 796.007 968.899 804.922C1124.51 816.065 1253.07 610.02 1130.82 507.19C973.265 374.652 911.156 510.808 704.459 536.179C497.763 561.549 270.036 348.597 422.646 122.039C575.256 -104.519 955.53 93.026 824.784 450.055Z" stroke="white" stroke-opacity="0.01" stroke-width="40"/>
<path d="M703.101 406.868C739.92 144.21 944.242 10.8891 1096.8 78.8001C1287.49 163.689 1309.42 487.897 1100.34 532.253C830.853 589.423 843.329 389.577 615.338 229.4C387.347 69.2218 -15.6248 177.1 21.7643 540.673C59.1534 904.245 632.478 910.668 703.101 406.868Z" stroke="white" stroke-opacity="0.01" stroke-width="40"/>
</g>
<defs>
<clipPath id="clip0_0_1">
<rect width="1441" height="946" fill="white" transform="translate(-616 -485)"/>
</clipPath>
</defs>
</svg>
