<svg width="1296" height="787" viewBox="0 0 1296 787" fill="none" xmlns="http://www.w3.org/2000/svg">
<path d="M1076.41 463.398C991.039 497.151 916.017 458.392 910.422 400.867C903.427 328.96 997.298 267.012 1046.35 322.391C1109.56 393.769 1047.26 424.129 1037.96 520.118C1028.65 616.107 1129.92 719.02 1233.01 645.697C1336.09 572.373 1240.15 398.656 1076.41 463.398Z" stroke="#223122" stroke-opacity="0.04" stroke-width="40"/>
<path d="M608.117 345.068C763.175 319.288 839.077 196.223 796.539 106.866C743.367 -4.8291 550.956 -12.9248 527.834 111.616C498.033 272.137 616.244 261.727 714.585 394.384C812.926 527.04 755.098 767.412 539.132 750.751C323.166 734.089 310.704 394.516 608.117 345.068Z" stroke="#223122" stroke-opacity="0.04" stroke-width="40"/>
</svg>
