<svg width="32" height="32" viewBox="0 0 32 32" fill="none" xmlns="http://www.w3.org/2000/svg">
<path d="M26.6665 16.2664V18.533C26.6665 22.733 24.2665 24.533 20.6665 24.533H8.6665C5.0665 24.533 2.6665 22.733 2.6665 18.533V11.333C2.6665 7.13301 5.0665 5.33301 8.6665 5.33301H12.2665C12.0932 5.83967 11.9998 6.39967 11.9998 6.99967V12.1997C11.9998 13.493 12.4265 14.5864 13.1865 15.3464C13.9465 16.1064 15.0398 16.533 16.3332 16.533V18.3863C16.3332 19.0663 17.1065 19.4797 17.6798 19.1064L21.5332 16.533H24.9998C25.5998 16.533 26.1598 16.4397 26.6665 16.2664Z" fill="#8DBB01"/>
<path opacity="0.4" d="M29.3333 7.00033V12.2004C29.3333 14.187 28.32 15.6803 26.6667 16.267C26.16 16.4403 25.6 16.5337 25 16.5337H21.5333L17.68 19.107C17.1067 19.4803 16.3333 19.067 16.3333 18.387V16.5337C15.04 16.5337 13.9467 16.107 13.1867 15.347C12.4267 14.587 12 13.4937 12 12.2004V7.00033C12 6.40033 12.0933 5.84033 12.2667 5.33366C12.8533 3.68033 14.3467 2.66699 16.3333 2.66699H25C27.6 2.66699 29.3333 4.40033 29.3333 7.00033Z" fill="#8DBB01"/>
<path opacity="0.4" d="M19.4667 28.3332H15.6667V24.5332C15.6667 23.9865 15.2134 23.5332 14.6667 23.5332C14.12 23.5332 13.6667 23.9865 13.6667 24.5332V28.3332H9.8667C9.32003 28.3332 8.8667 28.7865 8.8667 29.3332C8.8667 29.8798 9.32003 30.3332 9.8667 30.3332H19.4667C20.0134 30.3332 20.4667 29.8798 20.4667 29.3332C20.4667 28.7865 20.0134 28.3332 19.4667 28.3332Z" fill="#8DBB01"/>
<path d="M20.5864 10.667C20.0264 10.667 19.5864 10.2137 19.5864 9.66699C19.5864 9.12033 20.0398 8.66699 20.5864 8.66699C21.1331 8.66699 21.5864 9.12033 21.5864 9.66699C21.5864 10.2137 21.1331 10.667 20.5864 10.667Z" fill="#8DBB01"/>
<path d="M24.3335 10.667C23.7735 10.667 23.3335 10.2137 23.3335 9.66699C23.3335 9.12033 23.7868 8.66699 24.3335 8.66699C24.8802 8.66699 25.3335 9.12033 25.3335 9.66699C25.3335 10.2137 24.8802 10.667 24.3335 10.667Z" fill="#8DBB01"/>
<path d="M16.8267 10.667C16.2667 10.667 15.8267 10.2137 15.8267 9.66699C15.8267 9.12033 16.28 8.66699 16.8267 8.66699C17.3733 8.66699 17.8267 9.12033 17.8267 9.66699C17.8267 10.2137 17.3867 10.667 16.8267 10.667Z" fill="#8DBB01"/>
</svg>
