<svg width="32" height="32" viewBox="0 0 32 32" fill="none" xmlns="http://www.w3.org/2000/svg">
<g clip-path="url(#clip0_25_55)">
<mask id="mask0_25_55" style="mask-type:luminance" maskUnits="userSpaceOnUse" x="0" y="0" width="32" height="32">
<path d="M32 0H0V32H32V0Z" fill="white"/>
</mask>
<g mask="url(#mask0_25_55)">
<path d="M31.3681 6.78978C30.5981 3.2085 29.4042 0.700458 29.3537 0.595478C29.1464 0.163596 28.6474 -0.042946 28.1955 0.115744C28.1074 0.146506 26.0034 0.892596 23.353 2.47413C21.5495 3.5503 19.2351 5.18066 17.231 7.37718C17.6309 7.88622 18.0134 8.41868 18.3708 8.97679C18.3721 8.97874 18.3733 8.98069 18.3745 8.98265C18.9756 9.92185 19.4885 10.9011 19.8996 11.8935C20.4809 13.2966 20.8901 14.788 21.1282 16.3603L25.3276 6.22167C25.5263 5.74218 26.0759 5.51464 26.5554 5.71313C27.0349 5.91186 27.2624 6.46142 27.0639 6.94091L21.3567 20.7194C21.3093 21.9465 21.1736 23.2121 20.9487 24.5143C20.4934 27.1505 19.7612 29.3768 19.2222 30.7914C20.0803 30.3539 21.0715 29.8014 22.1159 29.1266C23.9294 27.955 25.5273 26.6557 26.8654 25.265C28.5571 23.5067 29.8371 21.5959 30.6701 19.5851C31.5029 17.5746 31.9489 15.3183 31.996 12.8789C32.0331 10.9492 31.8217 8.90061 31.3681 6.78978Z" fill="#8DBB01"/>
<path opacity="0.4" d="M18.1633 12.613C17.7946 11.7226 17.3329 10.842 16.7914 9.99556L16.7905 9.99409C14.5136 6.43649 11.1054 3.94139 8.64719 2.47435C5.99681 0.892818 3.89306 0.146728 3.80468 0.115722C3.70214 0.0795898 3.59716 0.0625 3.49365 0.0625C3.14135 0.0625 2.80688 0.261718 2.64648 0.595456C2.59595 0.700436 1.40235 3.20848 0.632089 6.78976C0.178234 8.90059 -0.0329471 10.9494 0.00416207 12.8791C0.051281 15.3183 0.497324 17.5746 1.33033 19.5854C2.16309 21.5958 3.44311 23.507 5.13475 25.265C6.47288 26.6559 8.07102 27.9552 9.88449 29.1268C12.2973 30.6856 14.4274 31.5936 15.2875 31.9312L5.89354 9.25215C5.69481 8.77266 5.92259 8.22286 6.40208 8.02438C6.88157 7.82589 7.43113 8.05343 7.62986 8.53292L17.0236 31.2115C17.4626 30.2025 18.5165 27.5548 19.0968 24.1947C19.8512 19.8266 19.5373 15.9301 18.1633 12.613Z" fill="#8DBB01"/>
</g>
</g>
<defs>
<clipPath id="clip0_25_55">
<rect width="32" height="32" fill="white"/>
</clipPath>
</defs>
</svg>
