<svg width="32" height="32" viewBox="0 0 32 32" fill="none" xmlns="http://www.w3.org/2000/svg">
<path opacity="0.4" d="M26.72 9.09358L19.04 3.72024C16.9467 2.25358 13.7333 2.33358 11.72 3.89358L5.03999 9.10691C3.70665 10.1469 2.65332 12.2802 2.65332 13.9602V23.1602C2.65332 26.5602 5.41332 29.3336 8.81332 29.3336H23.1867C26.5867 29.3336 29.3467 26.5736 29.3467 23.1736V14.1336C29.3467 12.3336 28.1867 10.1202 26.72 9.09358Z" fill="#8DBB01"/>
<path d="M22.4397 15.0265C22.3464 14.7998 22.1597 14.6131 21.9331 14.5198C21.8131 14.4665 21.6931 14.4531 21.5731 14.4531H19.0931C18.5731 14.4531 18.1597 14.8665 18.1597 15.3865C18.1597 15.9065 18.5731 16.3198 19.0931 16.3198H19.3331L16.5197 19.1331L15.1597 17.1065C14.9997 16.8798 14.7597 16.7198 14.4797 16.6931C14.1864 16.6665 13.9331 16.7598 13.7331 16.9598L9.75975 20.9331C9.39975 21.2931 9.39975 21.8798 9.75975 22.2531C9.94641 22.4398 10.1731 22.5198 10.4131 22.5198C10.6531 22.5198 10.8931 22.4265 11.0664 22.2531L14.2397 19.0798L15.5997 21.1065C15.7597 21.3331 15.9997 21.4931 16.2797 21.5198C16.5731 21.5465 16.8264 21.4531 17.0264 21.2531L20.6531 17.6265V17.8665C20.6531 18.3865 21.0664 18.7998 21.5864 18.7998C22.1064 18.7998 22.5197 18.3865 22.5197 17.8665V15.3865C22.5064 15.2531 22.4931 15.1331 22.4397 15.0265Z" fill="#8DBB01"/>
</svg>
