<svg width="32" height="32" viewBox="0 0 32 32" fill="none" xmlns="http://www.w3.org/2000/svg">
<path d="M30.6658 30.0003C30.6658 29.2639 30.0689 28.667 29.3325 28.667H2.66683C1.93045 28.667 1.3335 29.2639 1.3335 30.0003C1.3335 30.7367 1.93045 31.3337 2.66683 31.3337H29.3325C30.0689 31.3337 30.6658 30.7367 30.6658 30.0003Z" fill="#8DBB01"/>
<path opacity="0.4" d="M22.6667 2.66699H9.33333C5.33333 2.66699 4 5.05366 4 8.00033V29.3337H28V8.00033C28 5.05366 26.6667 2.66699 22.6667 2.66699Z" fill="#8DBB01"/>
<path d="M18.7468 20.667H13.2401C12.5601 20.667 11.9868 21.227 11.9868 21.9203V28.667H19.9868V21.9203C20.0001 21.227 19.4401 20.667 18.7468 20.667Z" fill="#8DBB01"/>
<path d="M17.3333 8.66634C17.3333 7.92996 16.7364 7.33301 16 7.33301C15.2636 7.33301 14.6667 7.92996 14.6667 8.66634V9.99967H13.3333C12.597 9.99967 12 10.5966 12 11.333C12 12.0694 12.597 12.6663 13.3333 12.6663H14.6667V13.9997C14.6667 14.7361 15.2636 15.333 16 15.333C16.7364 15.333 17.3333 14.7361 17.3333 13.9997V12.6663H18.6667C19.403 12.6663 20 12.0694 20 11.333C20 10.5966 19.403 9.99967 18.6667 9.99967H17.3333V8.66634Z" fill="#8DBB01"/>
</svg>
