<svg width="24" height="29" viewBox="0 0 24 29" fill="none" xmlns="http://www.w3.org/2000/svg">
<path d="M17 6H7C4 6 2 7.5 2 11V18C2 21.5 4 23 7 23H17C20 23 22 21.5 22 18V11C22 7.5 20 6 17 6ZM17.47 12.09L14.34 14.59C13.68 15.12 12.84 15.38 12 15.38C11.16 15.38 10.31 15.12 9.66 14.59L6.53 12.09C6.21 11.83 6.16 11.35 6.41 11.03C6.67 10.71 7.14 10.65 7.46 10.91L10.59 13.41C11.35 14.02 12.64 14.02 13.4 13.41L16.53 10.91C16.85 10.65 17.33 10.7 17.58 11.03C17.84 11.35 17.79 11.83 17.47 12.09Z" fill="white"/>
</svg>
