<svg width="60" height="78" viewBox="0 0 60 78" fill="none" xmlns="http://www.w3.org/2000/svg">
<path d="M52.5 42.3763H50.5383C50.0672 37.2549 47.6996 32.4943 43.9001 29.0282C40.1005 25.5621 35.143 23.6406 30 23.6406C24.857 23.6406 19.8995 25.5621 16.0999 29.0282C12.3004 32.4943 9.93284 37.2549 9.46172 42.3763H7.5C7.00272 42.3763 6.52581 42.5738 6.17417 42.9255C5.82254 43.2771 5.625 43.754 5.625 44.2513C5.63324 48.7103 6.86037 53.0822 9.1737 56.8943C11.487 60.7063 14.7985 63.8133 18.75 65.8794V66.7513C18.75 67.7458 19.1451 68.6997 19.8484 69.4029C20.5516 70.1062 21.5054 70.5013 22.5 70.5013H37.5C38.4946 70.5013 39.4484 70.1062 40.1516 69.4029C40.8549 68.6997 41.25 67.7458 41.25 66.7513V65.8794C45.2015 63.8133 48.513 60.7063 50.8263 56.8943C53.1396 53.0822 54.3668 48.7103 54.375 44.2513C54.375 43.754 54.1775 43.2771 53.8258 42.9255C53.4742 42.5738 52.9973 42.3763 52.5 42.3763ZM40.6594 31.1802C41.0891 31.5317 41.5008 31.9028 41.8945 32.2935C36.9032 34.0493 32.7785 37.6578 30.375 42.3716H23.4609C24.6328 39.0867 26.7903 36.2436 29.6387 34.2309C32.487 32.2182 35.8873 31.1339 39.375 31.1263C39.8039 31.1263 40.2328 31.1474 40.6594 31.1802ZM34.7156 42.3763C36.9889 38.9659 40.428 36.5017 44.3883 35.4458C45.6831 37.552 46.4956 39.9188 46.7672 42.3763H34.7156ZM30 27.3763C31.5046 27.3773 33.0023 27.5799 34.4531 27.9786C30.9198 28.8551 27.6799 30.6475 25.06 33.1752C22.4402 35.7029 20.5329 38.8766 19.5305 42.3763H13.2328C13.6979 38.2533 15.664 34.4457 18.7563 31.6793C21.8487 28.9129 25.8509 27.3812 30 27.3763Z" fill="#8DBB01"/>
<path d="M20.4434 2C15.4434 9 25.4434 11 20.4434 19" stroke="#223122" stroke-width="3" stroke-linecap="round"/>
<path d="M26.3301 2C21.3301 9 31.3301 11 26.3301 19" stroke="#223122" stroke-width="3" stroke-linecap="round"/>
<path d="M32.2168 2C27.2168 9 37.2168 11 32.2168 19" stroke="#223122" stroke-width="3" stroke-linecap="round"/>
<path fill-rule="evenodd" clip-rule="evenodd" d="M17.5606 25.0791L10.0102 12.9761C9.21783 11.7059 7.49019 11.4201 6.33091 12.3675C5.26599 13.2377 5.11082 14.8076 5.98477 15.8694L15.216 27.0858C15.9467 26.3614 16.7303 25.6904 17.5606 25.0791ZM13.1487 29.4666L2.20251 19.956C1.16436 19.054 1.05667 17.4802 1.96229 16.4452C2.94815 15.3185 4.69927 15.3134 5.69163 16.4344L15.1653 27.1362C14.4381 27.862 13.7637 28.6409 13.1487 29.4666Z" fill="#FC9A77"/>
</svg>
