<svg width="24" height="29" viewBox="0 0 24 29" fill="none" xmlns="http://www.w3.org/2000/svg">
<path d="M17.62 13.25C17.19 13.25 16.85 12.9 16.85 12.48C16.85 12.11 16.48 11.34 15.86 10.67C15.25 10.02 14.58 9.63998 14.02 9.63998C13.59 9.63998 13.25 9.28998 13.25 8.86998C13.25 8.44998 13.6 8.09998 14.02 8.09998C15.02 8.09998 16.07 8.63998 16.99 9.60998C17.85 10.52 18.4 11.65 18.4 12.47C18.4 12.9 18.05 13.25 17.62 13.25Z" fill="white"/>
<path d="M21.23 13.25C20.8 13.25 20.46 12.9 20.46 12.48C20.46 8.93 17.57 6.05 14.03 6.05C13.6 6.05 13.26 5.7 13.26 5.28C13.26 4.86 13.6 4.5 14.02 4.5C18.42 4.5 22 8.08 22 12.48C22 12.9 21.65 13.25 21.23 13.25Z" fill="white"/>
<path d="M11.05 17.45L9.2 19.3C8.81 19.69 8.19 19.69 7.79 19.31C7.68 19.2 7.57 19.1 7.46 18.99C6.43 17.95 5.5 16.86 4.67 15.72C3.85 14.58 3.19 13.44 2.71 12.31C2.24 11.17 2 10.08 2 9.04C2 8.36 2.12 7.71 2.36 7.11C2.6 6.5 2.98 5.94 3.51 5.44C4.15 4.81 4.85 4.5 5.59 4.5C5.87 4.5 6.15 4.56 6.4 4.68C6.66 4.8 6.89 4.98 7.07 5.24L9.39 8.51C9.57 8.76 9.7 8.99 9.79 9.21C9.88 9.42 9.93 9.63 9.93 9.82C9.93 10.06 9.86 10.3 9.72 10.53C9.59 10.76 9.4 11 9.16 11.24L8.4 12.03C8.29 12.14 8.24 12.27 8.24 12.43C8.24 12.51 8.25 12.58 8.27 12.66C8.3 12.74 8.33 12.8 8.35 12.86C8.53 13.19 8.84 13.62 9.28 14.14C9.73 14.66 10.21 15.19 10.73 15.72C10.83 15.82 10.94 15.92 11.04 16.02C11.44 16.41 11.45 17.05 11.05 17.45Z" fill="white"/>
<path d="M21.9696 20.83C21.9696 21.11 21.9196 21.4 21.8196 21.68C21.7896 21.76 21.7596 21.84 21.7196 21.92C21.5496 22.28 21.3296 22.62 21.0396 22.94C20.5496 23.48 20.0096 23.87 19.3996 24.12C19.3896 24.12 19.3796 24.13 19.3696 24.13C18.7796 24.37 18.1396 24.5 17.4496 24.5C16.4296 24.5 15.3396 24.26 14.1896 23.77C13.0396 23.28 11.8896 22.62 10.7496 21.79C10.3596 21.5 9.96961 21.21 9.59961 20.9L12.8696 17.63C13.1496 17.84 13.3996 18 13.6096 18.11C13.6596 18.13 13.7196 18.16 13.7896 18.19C13.8696 18.22 13.9496 18.23 14.0396 18.23C14.2096 18.23 14.3396 18.17 14.4496 18.06L15.2096 17.31C15.4596 17.06 15.6996 16.87 15.9296 16.75C16.1596 16.61 16.3896 16.54 16.6396 16.54C16.8296 16.54 17.0296 16.58 17.2496 16.67C17.4696 16.76 17.6996 16.89 17.9496 17.06L21.2596 19.41C21.5196 19.59 21.6996 19.8 21.8096 20.05C21.9096 20.3 21.9696 20.55 21.9696 20.83Z" fill="white"/>
</svg>
