<svg width="62" height="73" viewBox="0 0 62 73" fill="none" xmlns="http://www.w3.org/2000/svg">
<path d="M48.5 61C48.5 63.6561 46.8851 66.2444 43.8959 68.2372C40.9172 70.223 36.7157 71.5 32 71.5C27.2843 71.5 23.0828 70.223 20.1041 68.2372C17.1149 66.2444 15.5 63.6561 15.5 61C15.5 58.3439 17.1149 55.7556 20.1041 53.7628C23.0828 51.777 27.2843 50.5 32 50.5C36.7157 50.5 40.9172 51.777 43.8959 53.7628C46.8851 55.7556 48.5 58.3439 48.5 61Z" stroke="#FC9A77" stroke-width="3"/>
<path d="M8.0797 0.640999C8.0797 0.408999 8.17637 0.292998 8.3697 0.292998H8.8627C9.05604 0.292998 9.1527 0.408999 9.1527 0.640999V3.918H9.9647V0.640999C9.9647 0.408999 10.0614 0.292998 10.2547 0.292998H10.7477C10.941 0.292998 11.0377 0.408999 11.0377 0.640999V4.005C12.9324 4.179 14.4307 4.68167 15.5327 5.513C16.6347 6.34433 17.1857 7.38833 17.1857 8.645C17.1857 9.59233 16.8474 10.356 16.1707 10.936C15.5134 11.516 14.653 11.806 13.5897 11.806C12.4297 11.806 11.4727 11.5257 10.7187 10.965C9.9647 10.4043 9.5877 9.689 9.5877 8.819C9.5877 8.123 9.8197 7.56233 10.2837 7.137C10.767 6.71167 11.4147 6.47967 12.2267 6.441C12.3427 6.325 12.4007 6.19933 12.4007 6.064C12.4007 5.92867 12.3427 5.82233 12.2267 5.745C12.1107 5.66767 11.956 5.629 11.7627 5.629C10.8927 5.629 10.1484 5.93833 9.5297 6.557C8.93037 7.17567 8.6307 7.92967 8.6307 8.819C8.6307 9.82433 9.0077 10.6653 9.7617 11.342C10.535 12.0187 11.6564 12.4923 13.1257 12.763C16.0257 13.3237 17.4757 14.7447 17.4757 17.026C17.4757 18.6307 16.9247 19.9163 15.8227 20.883C14.7207 21.8497 13.1257 22.449 11.0377 22.681V26.074C11.0377 26.306 10.941 26.422 10.7477 26.422H10.2547C10.0614 26.422 9.9647 26.306 9.9647 26.074V22.797H9.1527V26.074C9.1527 26.306 9.05604 26.422 8.8627 26.422H8.3697C8.17637 26.422 8.0797 26.306 8.0797 26.074V22.797C5.74037 22.7003 3.94237 22.246 2.6857 21.434C1.42904 20.622 0.800703 19.52 0.800703 18.128C0.800703 17.1807 1.12937 16.417 1.7867 15.837C2.46337 15.2377 3.34304 14.938 4.4257 14.938C5.5857 14.938 6.5427 15.2183 7.2967 15.779C8.07004 16.3203 8.4567 17.026 8.4567 17.896C8.4567 18.6113 8.21504 19.1817 7.7317 19.607C7.24837 20.0323 6.59104 20.2547 5.7597 20.274C5.6437 20.39 5.5857 20.5157 5.5857 20.651C5.5857 20.7863 5.6437 20.8927 5.7597 20.97C5.89504 21.0473 6.05937 21.086 6.2527 21.086C7.1227 21.086 7.85737 20.7767 8.4567 20.158C9.07537 19.5393 9.3847 18.7853 9.3847 17.896C9.3847 16.968 9.05604 16.214 8.3987 15.634C7.74137 15.054 6.53304 14.474 4.7737 13.894C3.5557 13.4687 2.64704 12.908 2.0477 12.212C1.4677 11.516 1.1777 10.6653 1.1777 9.66C1.1777 8.094 1.79637 6.80833 3.0337 5.803C4.27104 4.79767 5.95304 4.19833 8.0797 4.005V0.640999Z" fill="#223122"/>
<path d="M50.7688 45.225C52.4033 42.1545 53.2556 38.7284 53.25 35.25C53.25 23.5138 43.7363 14 32 14C20.2638 14 10.75 23.5138 10.75 35.25C10.7414 40.2628 12.5134 45.1158 15.75 48.9437L15.775 48.975C15.7838 48.9825 15.7913 48.9925 15.7975 49H15.75L28.36 62.3875C28.8275 62.8837 29.3915 63.2791 30.0173 63.5493C30.6432 63.8195 31.3177 63.9589 31.9994 63.9589C32.6811 63.9589 33.3556 63.8195 33.9815 63.5493C34.6073 63.2791 35.1713 62.8837 35.6388 62.3875L48.25 49H48.2025L48.2225 48.9763L48.225 48.9738C48.315 48.8663 48.405 48.7587 48.4938 48.6487C49.3608 47.5831 50.1227 46.4374 50.7688 45.225ZM32.0063 43.3738C30.0172 43.3738 28.1095 42.5836 26.703 41.1771C25.2965 39.7705 24.5063 37.8629 24.5063 35.8738C24.5063 33.8846 25.2965 31.977 26.703 30.5704C28.1095 29.1639 30.0172 28.3737 32.0063 28.3737C33.9954 28.3737 35.9031 29.1639 37.3096 30.5704C38.7161 31.977 39.5063 33.8846 39.5063 35.8738C39.5063 37.8629 38.7161 39.7705 37.3096 41.1771C35.9031 42.5836 33.9954 43.3738 32.0063 43.3738Z" fill="#8DBB01"/>
</svg>
