<svg width="24" height="29" viewBox="0 0 24 29" fill="none" xmlns="http://www.w3.org/2000/svg">
<g clip-path="url(#clip0_180_212)">
<path d="M9.15039 9.99023C8.59039 9.99023 8.15039 10.4402 8.15039 10.9902C8.15039 11.5402 8.60039 11.9902 9.15039 11.9902C9.70039 11.9902 10.1504 11.5402 10.1504 10.9902C10.1504 10.4402 9.70039 9.99023 9.15039 9.99023Z" fill="white"/>
<path d="M21.46 7.54C20.62 5.59 18.77 4.5 16.19 4.5H7.81C4.6 4.5 2 7.1 2 10.31V18.69C2 21.27 3.09 23.12 5.04 23.96C5.23 24.04 5.45 23.99 5.59 23.85L21.35 8.09C21.5 7.94 21.55 7.72 21.46 7.54ZM10.53 14.74C10.14 15.12 9.63 15.3 9.12 15.3C8.61 15.3 8.1 15.11 7.71 14.74C6.69 13.78 5.57 12.25 6 10.43C6.38 8.78 7.84 8.04 9.12 8.04C10.4 8.04 11.86 8.78 12.24 10.44C12.66 12.25 11.54 13.78 10.53 14.74Z" fill="white"/>
<path d="M19.4699 23.03C19.6899 23.25 19.6599 23.61 19.3899 23.76C18.5099 24.25 17.4399 24.5 16.1899 24.5H7.8099C7.5199 24.5 7.3999 24.16 7.5999 23.96L13.6399 17.92C13.8399 17.72 14.1499 17.72 14.3499 17.92L19.4699 23.03Z" fill="white"/>
<path d="M22 10.31V18.69C22 19.94 21.75 21.02 21.26 21.89C21.11 22.16 20.75 22.18 20.53 21.97L15.41 16.85C15.21 16.65 15.21 16.34 15.41 16.14L21.45 10.1C21.66 9.90002 22 10.02 22 10.31Z" fill="white"/>
</g>
<defs>
<clipPath id="clip0_180_212">
<rect width="24" height="24" fill="white" transform="translate(0 2.5)"/>
</clipPath>
</defs>
</svg>
