<svg width="92" height="92" viewBox="0 0 92 92" fill="none" xmlns="http://www.w3.org/2000/svg">
<mask id="mask0_32_830" style="mask-type:luminance" maskUnits="userSpaceOnUse" x="0" y="0" width="92" height="92">
<path d="M45.9987 87.6666C51.4715 87.6737 56.8917 86.5992 61.9479 84.5048C67.0041 82.4104 71.5965 79.3374 75.4612 75.4624C79.3362 71.5977 82.4091 67.0053 84.5035 61.9491C86.598 56.893 87.6725 51.4727 87.6654 46C87.6724 40.5272 86.5978 35.107 84.5034 30.0508C82.409 24.9947 79.3361 20.4023 75.4612 16.5375C71.5965 12.6625 67.0041 9.58953 61.9479 7.49513C56.8917 5.40073 51.4715 4.3262 45.9987 4.33329C40.526 4.32631 35.1058 5.4009 30.0496 7.49529C24.9935 9.58969 20.401 12.6626 16.5362 16.5375C12.6614 20.4023 9.58847 24.9947 7.49407 30.0508C5.39967 35.107 4.32509 40.5272 4.33207 46C4.32498 51.4727 5.39951 56.893 7.49391 61.9491C9.58831 67.0053 12.6613 71.5977 16.5362 75.4624C20.401 79.3373 24.9935 82.4102 30.0496 84.5046C35.1058 86.599 40.526 87.6736 45.9987 87.6666Z" fill="white" stroke="white" stroke-width="8.33333" stroke-linejoin="round"/>
<path d="M27.332 46L39.832 58.5L64.832 33.5" stroke="black" stroke-width="8.33333" stroke-linecap="round" stroke-linejoin="round"/>
</mask>
<g mask="url(#mask0_32_830)">
<path d="M-4.00098 -4H95.999V96H-4.00098V-4Z" fill="#8DBB01"/>
</g>
</svg>
