<svg width="68" height="66" viewBox="0 0 68 66" fill="none" xmlns="http://www.w3.org/2000/svg">
<path d="M13.0833 22H7.83333C4.61167 22 2 19.3664 2 16.1176C2 13.2278 4.06658 10.8246 6.7908 10.329C7.27582 8.25193 9.12553 6.70588 11.3333 6.70588C11.5911 6.70588 11.8441 6.72697 12.0905 6.76751C13.3885 3.95204 16.2182 2 19.5 2C24.0103 2 27.6667 5.68707 27.6667 10.2353C27.6667 10.6153 27.6411 10.9892 27.5917 11.3555C29.0511 12.4247 30 14.1594 30 16.1176C30 19.3664 27.3883 22 24.1667 22H20.0833" stroke="#223122" stroke-width="3" stroke-linecap="round"/>
<path d="M62.9991 14.525V14.525C62.8457 12.9145 61.2338 11.8634 59.6991 12.375V12.375C54.5576 14.1614 49.0672 14.7095 43.6741 13.975C38.0069 13.0955 32.2064 13.877 26.9741 16.225C24.2002 17.4061 21.7659 19.2623 19.8927 21.6245C18.0195 23.9868 16.767 26.78 16.2491 29.75C15.5775 33.5867 15.9135 37.5321 17.2241 41.2C18.0679 39.2952 19.0541 37.4567 20.1741 35.7C22.7146 31.9621 26.2347 28.9954 30.3491 27.125C34.3127 25.3153 38.645 24.4591 42.9991 24.625C38.8541 25.2587 34.8866 26.7487 31.3491 29C29.6427 30.0721 28.0801 31.3575 26.6991 32.825C25.3782 34.2918 24.2136 35.8921 23.2241 37.6C21.3654 41.17 20.0428 44.9944 19.2991 48.95C18.669 52.0684 18.2654 55.2271 18.0908 58.4015C18.0122 59.8288 19.1698 61 20.5993 61V61C21.949 61 23.0622 59.9516 23.1915 58.6081C23.4632 55.7845 23.8913 52.9774 24.4741 50.2C27.9426 52.073 31.8324 53.0282 35.774 52.975C39.4502 52.9725 43.0886 52.2329 46.4741 50.8C65.4991 42.675 62.9991 15.65 62.9991 14.525Z" fill="#8DBB01"/>
<circle cx="48.5" cy="57.5" r="2.5" fill="#FC9A77"/>
<circle cx="57.5" cy="48.5" r="1.5" fill="#FC9A77"/>
</svg>
