<svg width="32" height="32" viewBox="0 0 32 32" fill="none" xmlns="http://www.w3.org/2000/svg">
<path opacity="0.4" d="M26.4798 10.7871C26.4798 10.9871 26.4798 11.1871 26.4665 11.3738C24.4265 10.6138 22.0265 11.0804 20.4265 12.5204C19.3465 11.5471 17.9465 11.0004 16.4532 11.0004C13.1732 11.0004 10.5065 13.6805 10.5065 16.9871C10.5065 20.7605 12.3998 23.5204 14.2132 25.3071C14.0665 25.2938 13.9465 25.2671 13.8398 25.2271C10.3865 24.0404 2.6665 19.1338 2.6665 10.7871C2.6665 7.10711 5.62649 4.13379 9.27983 4.13379C11.4532 4.13379 13.3732 5.17378 14.5732 6.78711C15.7865 5.17378 17.7065 4.13379 19.8665 4.13379C23.5198 4.13379 26.4798 7.10711 26.4798 10.7871Z" fill="#8DBB01"/>
<path d="M24 12.7871C22.5734 12.7871 21.28 13.4805 20.48 14.5471C19.68 13.4805 18.4 12.7871 16.96 12.7871C14.5334 12.7871 12.5601 14.7605 12.5601 17.2138C12.5601 18.1605 12.7067 19.0271 12.9734 19.8271C14.2267 23.7871 18.08 26.1471 19.9867 26.8005C20.2534 26.8938 20.6934 26.8938 20.9734 26.8005C22.8801 26.1471 26.7334 23.7871 27.9867 19.8271C28.2534 19.0138 28.4 18.1471 28.4 17.2138C28.4 14.7605 26.4267 12.7871 24 12.7871Z" fill="#8DBB01"/>
</svg>
