<svg width="32" height="32" viewBox="0 0 32 32" fill="none" xmlns="http://www.w3.org/2000/svg">
<path opacity="0.4" d="M9.33317 24.5736H14.6665L20.5999 28.5203C21.4799 29.1069 22.6665 28.4802 22.6665 27.4136V24.5736C26.6665 24.5736 29.3332 21.9069 29.3332 17.9069V9.9069C29.3332 5.9069 26.6665 3.24023 22.6665 3.24023H9.33317C5.33317 3.24023 2.6665 5.9069 2.6665 9.9069V17.9069C2.6665 21.9069 5.33317 24.5736 9.33317 24.5736Z" fill="#8DBB01"/>
<path d="M20.6668 15H11.3335C10.7868 15 10.3335 14.5467 10.3335 14C10.3335 13.4533 10.7868 13 11.3335 13H20.6668C21.2135 13 21.6668 13.4533 21.6668 14C21.6668 14.5467 21.2135 15 20.6668 15Z" fill="#8DBB01"/>
</svg>
