<svg width="32" height="32" viewBox="0 0 32 32" fill="none" xmlns="http://www.w3.org/2000/svg">
<path opacity="0.4" d="M21.3332 2.66699H10.6665C5.33317 2.66699 2.6665 5.33366 2.6665 10.667V28.0003C2.6665 28.7337 3.2665 29.3337 3.99984 29.3337H21.3332C26.6665 29.3337 29.3332 26.667 29.3332 21.3337V10.667C29.3332 5.33366 26.6665 2.66699 21.3332 2.66699Z" fill="#8DBB01"/>
<path d="M22.0664 9.94692C20.3864 8.26692 18.7598 8.22692 17.0398 9.94692L15.9864 11.0003C15.8931 11.0936 15.8664 11.2269 15.8931 11.3469C16.5464 13.6403 18.3731 15.4669 20.6664 16.1203C20.6931 16.1336 20.7331 16.1336 20.7731 16.1336C20.8664 16.1336 20.9597 16.0936 21.0264 16.0269L22.0664 14.9869C22.9197 14.1336 23.3331 13.3203 23.3331 12.4936C23.3331 11.6269 22.9197 10.8003 22.0664 9.94692Z" fill="#8DBB01"/>
<path d="M19.1199 16.8935C18.8666 16.7735 18.6266 16.6535 18.3999 16.5068C18.2132 16.4002 18.0266 16.2802 17.8533 16.1468C17.7066 16.0535 17.5332 15.9202 17.3599 15.7735C17.3332 15.7602 17.2799 15.7202 17.2133 15.6402C16.9333 15.4002 16.6132 15.0802 16.3199 14.7468C16.2932 14.7335 16.2532 14.6668 16.1999 14.5868C16.1066 14.4802 15.9733 14.3068 15.8399 14.1202C15.7333 13.9868 15.6133 13.8002 15.5066 13.6135C15.3733 13.3868 15.2399 13.1468 15.1333 12.9068C15.0133 12.6402 14.9199 12.4002 14.8266 12.1602L9.79993 17.1868C9.4666 17.5202 9.15993 18.1335 9.09327 18.5868L8.70659 21.3602C8.61326 21.9468 8.78657 22.4935 9.14657 22.8668C9.45324 23.1735 9.87994 23.3335 10.3466 23.3335C10.4533 23.3335 10.5466 23.3202 10.6532 23.3068L13.4266 22.9202C13.8799 22.8535 14.4933 22.5468 14.8266 22.2135L19.8533 17.1868C19.6133 17.0935 19.3733 17.0002 19.1199 16.8935Z" fill="#8DBB01"/>
</svg>
