<svg width="32" height="32" viewBox="0 0 32 32" fill="none" xmlns="http://www.w3.org/2000/svg">
<path opacity="0.4" d="M30 10.87V21.13C30 22.81 29.0754 24.37 27.5806 25.225L18.4271 30.37C16.9323 31.21 15.0831 31.21 13.5729 30.37L4.41937 25.225C2.9246 24.385 2 22.825 2 21.13V10.87C2 9.19004 2.9246 7.62998 4.41937 6.77498L13.5729 1.63C15.0677 0.79 16.9169 0.79 18.4271 1.63L27.5806 6.77498C29.0754 7.62998 30 9.17504 30 10.87Z" fill="#8DBB01"/>
<path d="M16 15.9999C18.2091 15.9999 20 14.209 20 11.9999C20 9.79078 18.2091 8 16 8C13.7909 8 12 9.79078 12 11.9999C12 14.209 13.7909 15.9999 16 15.9999Z" fill="#8DBB01"/>
<path d="M21.0926 23.9998C22.6311 23.9998 23.5238 22.4548 22.6691 21.3046C21.3775 19.5707 18.8704 18.4033 16.0024 18.4033C13.1344 18.4033 10.6273 19.5707 9.33578 21.3046C8.48108 22.4548 9.37377 23.9998 10.9122 23.9998H21.0926Z" fill="#8DBB01"/>
</svg>
